<svg width="198" height="151" viewBox="0 0 198 151" fill="none" xmlns="http://www.w3.org/2000/svg">
<g clip-path="url(#clip0_370_104)">
<path d="M74.2432 92.5122C74.6161 93.6161 74.9368 94.5857 75.2874 95.6299C78.6586 94.2277 81.9404 92.8628 85.3117 91.4606C84.976 90.4835 84.6702 89.5959 84.3048 88.5517C80.8738 89.9017 77.5771 91.207 74.2506 92.5197L74.2432 92.5122Z" fill="white"/>
<path d="M104.36 26.3472C104.875 26.3994 105.352 26.7575 105.867 26.8992C106.233 27.0036 106.658 27.0856 107.016 27.0036C107.762 26.832 108.463 26.4591 109.216 26.3249C110.469 26.1011 111.155 25.2657 110.842 24.1097C110.723 23.6696 110.551 23.2445 110.342 22.8343C109.939 22.0586 110.014 21.3052 110.335 20.537C110.738 19.5749 110.663 19.5003 109.529 19.3213C108.522 19.1572 107.523 18.9334 106.352 18.7097C105.994 18.8215 105.397 19.0378 104.786 19.1796C104.189 19.3138 103.562 19.3362 102.973 19.4928C102.787 19.545 102.518 19.9553 102.578 20.0597C103.301 21.35 102.936 22.5359 102.444 23.8113C101.869 25.2881 102.667 26.1682 104.368 26.3472H104.36Z" fill="white"/>
<path d="M127.616 91.1174C131.047 92.6389 134.389 94.1157 137.797 95.6224C138.185 94.6155 138.513 93.7726 138.879 92.8329C135.522 91.3486 132.248 89.8942 128.944 88.4323C128.481 89.3721 128.079 90.1851 127.624 91.1174H127.616Z" fill="white"/>
<path d="M146.77 110.196C145.92 106.877 145.129 103.543 144.13 100.269C143.607 98.5686 142.675 96.9948 141.989 95.339C141.832 94.9512 141.78 94.4291 141.899 94.0412C142.526 92.0572 141.847 90.3865 139.938 89.5885C136.783 88.2534 133.628 86.9034 130.428 85.6951C129.63 85.3968 128.444 85.255 127.788 85.6354C126.408 86.4559 125.103 86.1128 123.73 85.986C122.761 85.8965 122.134 85.5758 121.903 84.5017C121.664 83.3904 120.829 82.3014 120.359 81.2647C119.956 80.3771 119.196 78.5871 119.792 78.0277C123.865 74.2238 125.617 68.6075 126.975 62.6481C127.072 62.2379 127.325 61.7904 127.616 61.5443C129.332 60.0824 130.369 60.0973 130.853 57.6807C131.368 55.0852 131.256 56.9125 130.935 54.3095C130.682 52.2882 130.137 50.4459 128.593 49.2526C128.407 49.1108 128.317 48.7155 128.273 48.4247C128.034 47.0448 127.818 41.2122 127.631 40.0562C125.774 41.2346 124.088 42.5399 122.261 43.4274C118.054 45.4785 113.602 46.1274 109.089 46.4034C104.107 46.7092 99.1843 46.2617 94.3362 44.8669C91.0917 43.9271 87.9964 42.5399 85.289 39.6758C85.0428 41.1675 84.8713 46.8434 84.6326 48.0592C84.5431 48.5291 84.4014 49.1108 84.1105 49.3644C82.9768 50.3713 82.2533 51.7213 82.0967 53.3249C81.858 55.7713 81.6492 53.8172 81.7685 56.2562C81.9251 59.3216 83.0738 59.9034 85.274 61.7084C85.5649 61.947 85.7961 62.4244 85.8931 62.8495C87.0492 68.0108 89.2569 74.4028 92.5088 78.0426C93.2174 78.8332 93.2249 79.5119 93.4188 80.4517C93.6202 81.4213 91.4572 82.6371 91.1961 83.7782C90.853 85.3147 90.2116 86.2321 88.4216 86.1575C87.4072 86.1128 86.4749 86.2694 85.468 85.7175C84.7892 85.3445 83.6779 85.27 82.9395 85.5459C79.4937 86.8437 76.1 88.2907 72.7138 89.7376C71.3937 90.297 70.439 91.6619 70.8641 92.9224C71.4011 94.5559 70.6478 95.6374 69.984 96.8829C69.5812 97.6213 69.2307 98.4119 69.0069 99.2249C67.9403 103.096 66.9185 106.974 65.9042 110.86C65.7923 111.278 65.7624 111.74 65.8221 112.173C66.1055 114.179 67.6495 115.313 70.0809 115.313C89.9953 115.313 109.902 115.32 129.817 115.328C134.135 115.328 138.461 115.343 142.78 115.328C145.741 115.313 147.501 113.061 146.777 110.219L146.77 110.196ZM75.287 95.6224C74.9365 94.5782 74.6158 93.6161 74.2428 92.5048C77.5693 91.1921 80.866 89.8943 84.297 88.5368C84.655 89.581 84.9608 90.4686 85.3039 91.4456C81.9326 92.8479 78.6508 94.2128 75.2796 95.615L75.287 95.6224ZM106.359 92.639L92.4193 86.1202L95.5296 81.026L106.359 85.5459L118.301 81.2423L120.523 86.1202L106.359 92.639ZM137.797 95.6224C134.389 94.1158 131.055 92.639 127.616 91.1175C128.079 90.1851 128.474 89.3647 128.936 88.4324C132.241 89.8943 135.515 91.3487 138.871 92.8329C138.506 93.7727 138.178 94.6155 137.79 95.6224H137.797Z" fill="white"/>
<path d="M85.1623 33.2764C85.3115 33.5747 85.7963 33.8283 86.0946 33.791C90.4952 33.2465 94.8883 32.4634 99.2963 32.0979C108.515 31.3371 117.689 31.9115 126.803 33.8208C127.303 33.9253 127.579 33.791 127.833 33.2316C128.795 31.091 129.884 29.3606 130.876 27.7197C131.95 25.9446 131.547 24.8855 129.533 24.0725C126.595 22.8866 123.529 21.9021 120.777 20.4253C117.376 18.6054 114.221 16.3827 110.984 14.3092C109.805 13.5559 108.597 12.9443 107.113 12.8175C104.92 12.6311 103.167 13.4366 101.497 14.615C97.7822 17.2554 94.0529 19.8883 89.7046 21.6261C87.467 22.5137 85.2443 23.4236 83.0068 24.3112C82.0148 24.7065 81.5523 25.4001 81.4927 26.5115C81.5747 26.7352 81.6344 27.1156 81.8283 27.4289C82.8949 29.1891 84.0435 31.0388 85.1697 33.2838L85.1623 33.2764ZM102.436 23.8115C102.929 22.536 103.294 21.3501 102.571 20.0598C102.511 19.9554 102.779 19.5377 102.966 19.4929C103.555 19.3363 104.182 19.3214 104.778 19.1797C105.39 19.038 105.987 18.8217 106.345 18.7098C107.516 18.941 108.515 19.1648 109.522 19.3214C110.648 19.5004 110.73 19.575 110.327 20.5371C110.007 21.3128 109.932 22.0587 110.335 22.8344C110.544 23.2371 110.715 23.6697 110.835 24.1098C111.148 25.2659 110.469 26.1012 109.209 26.325C108.455 26.4592 107.754 26.8322 107.008 27.0037C106.658 27.0858 106.225 27.0037 105.86 26.8993C105.345 26.7576 104.875 26.3996 104.353 26.3474C102.653 26.1684 101.855 25.2883 102.429 23.8115H102.436Z" fill="white"/>
<path d="M182.638 32.1277L184.003 16.5468L164.962 14.8835V0.734619H47.7651V42.51H52.9861V5.95561H159.741V112.71H52.9861V69.8829H47.7651V117.931H57.4911L57.0436 123.077L63.1522 123.614L62.0483 129.865L177.462 150.219L197.816 34.8053L182.646 32.1277H182.638ZM62.727 117.931H164.954V20.1194L178.342 21.2904L177.223 34.052L169.034 127.635L66.4339 118.662L62.6897 118.334L62.727 117.931ZM173.226 144.163L68.0972 125.628L68.3731 124.069L173.792 133.296L182.183 37.3487L191.768 39.0418L173.233 144.17L173.226 144.163Z" fill="white"/>
<path d="M60.5788 47.0523H39.307V25.773H21.5482V47.0523H0.276367V64.8036H21.5482V86.0755H39.307V64.8036H60.5788V47.0523Z" fill="white"/>
</g>
<defs>
<clipPath id="clip0_370_104">
<rect width="197.533" height="149.477" fill="white" transform="translate(0.276367 0.734619)"/>
</clipPath>
</defs>
</svg>
