<?xml version="1.0" encoding="UTF-8"?>
<svg xmlns="http://www.w3.org/2000/svg" version="1.1" viewBox="0 0 76 91" >
  <defs>
    <style>
      .cls-1 {
        fill: #fff;
      }
    </style>
  </defs>
  <!-- Generator: Adobe Illustrator 28.7.4, SVG Export Plug-In . SVG Version: 1.2.0 Build 166)  -->
  <g>
    <g id="Layer_1">
      <path class="cls-1" d="M14.6641 45.9602C14.8882 45.7798 15.1391 45.6183 15.3274 45.4137C16.3193 44.3368 17.6788 43.9302 19.1399 43.8145C20.341 43.7176 21.554 43.766 22.7641 43.7391C23.0002 43.7337 23.0061 43.8818 23.051 44.011C23.9174 46.4637 24.7779 48.9163 25.6414 51.369C25.7072 51.5547 25.7759 51.7405 25.8625 51.9693C26.1643 51.6732 26.4302 51.4093 26.6991 51.1455C31.4349 46.5094 36.1347 41.8437 40.9183 37.2481C44.0496 34.2408 47.3601 31.3951 50.8798 28.754C52.0391 27.8844 53.2491 27.0902 54.6026 26.479C55.6155 26.0214 56.6075 25.5179 57.6054 25.036C57.707 24.9875 57.8086 24.9445 57.9102 24.8987C57.9371 24.9148 57.964 24.9337 57.9879 24.9498C57.9162 25.071 57.8654 25.2083 57.7668 25.3079C55.8396 27.2894 53.9244 29.279 51.9733 31.2389C46.3054 36.925 40.9691 42.8533 36.0839 49.1048C34.1478 51.5816 32.376 54.1608 30.4668 56.6565C29.2388 58.2611 27.8972 59.793 26.6095 61.3626C26.4661 61.5376 26.2987 61.6211 26.0508 61.5968C25.8536 61.578 25.6474 61.5645 25.4532 61.5968C24.8974 61.6911 24.5807 61.4461 24.273 61.0584C22.4474 58.7807 20.8997 56.3496 19.4088 53.8889C17.879 51.3636 16.3612 48.8302 14.8374 46.2994C14.7896 46.2187 14.7208 46.146 14.6641 46.0706V45.9575L14.6641 45.9602Z" />
    </g>
  </g>
</svg>
