<svg width="63" height="45" viewBox="0 0 63 45" fill="none" xmlns="http://www.w3.org/2000/svg">
<g clip-path="url(#clip0_225_812)">
<path d="M0.0117586 45C0.0117586 44.7141 0.0117586 44.525 0.0117586 44.3348C0.00858397 41.6994 -0.00411466 39.0651 0.0202244 36.4297C0.0223408 36.2045 0.207529 35.8974 0.401183 35.7709C3.08483 34.0111 5.78646 32.278 8.48068 30.5342C10.9082 28.9636 13.3263 27.377 15.7591 25.8149C18.2047 24.2443 20.6692 22.7035 23.1148 21.134C25.7561 19.438 28.389 17.7292 31.0144 16.0099C31.3541 15.7878 31.5954 15.7591 31.9509 15.9907C36.0208 18.6272 40.1066 21.2392 44.1818 23.8692C50.2094 27.7606 56.2233 31.6712 62.2647 35.5403C62.8213 35.8963 63.0022 36.2491 62.9927 36.8856C62.9557 39.2543 62.979 41.625 62.979 43.9947C62.979 44.2753 62.979 44.5558 62.979 44.949C62.743 44.8247 62.5768 44.7524 62.4266 44.6557C59.8456 42.9958 57.2667 41.3328 54.6878 39.6708C49.0708 36.0504 43.4527 32.4321 37.8367 28.8095C35.8674 27.5396 33.9023 26.2644 31.9382 24.985C31.6684 24.8086 31.4641 24.7395 31.1393 24.951C26.8821 27.7139 22.61 30.4545 18.3433 33.2025C14.74 35.5233 11.1368 37.8441 7.53464 40.1671C5.17798 41.6867 2.82133 43.2073 0.464676 44.7269C0.348272 44.8023 0.227635 44.8714 0.0128168 45.0011L0.0117586 45Z" fill="white"/>
<path d="M0 29.1932C0 28.867 0 28.6439 0 28.4207C0.00423288 25.8746 0.0169315 23.3274 0.00423288 20.7813C0.00211644 20.3648 0.126986 20.1118 0.485722 19.8813C6.77789 15.8432 13.0616 11.7913 19.3474 7.74155C23.2903 5.20181 27.2354 2.66527 31.1688 0.111726C31.4556 -0.0742377 31.6228 -0.00410282 31.863 0.151044C36.2154 2.96706 40.571 5.77883 44.9288 8.58741C50.7098 12.3131 56.4888 16.0408 62.2815 19.7484C62.7936 20.0757 63.0116 20.4104 63 21.048C62.9534 23.558 62.9809 26.0701 62.9788 28.5812C62.9788 28.7501 62.9651 28.918 62.9534 29.1837C62.1672 28.6874 61.4539 28.2464 60.7492 27.7916C56.9258 25.3252 53.1046 22.8545 49.2823 20.386C45.7119 18.0811 42.1414 15.7762 38.571 13.4724C36.3339 12.0293 34.0926 10.5937 31.8619 9.14106C31.5794 8.95722 31.3825 8.98272 31.1095 9.16018C26.5666 12.1058 22.0184 15.043 17.468 17.978C15.0373 19.5455 12.6002 21.1012 10.1684 22.6654C6.92075 24.7556 3.67625 26.849 0.429637 28.9403C0.32699 29.0062 0.220109 29.0636 0.00211644 29.1911L0 29.1932Z" fill="white"/>
</g>
<defs>
<clipPath id="clip0_225_812">
<rect width="63" height="45" fill="white"/>
</clipPath>
</defs>
</svg>
