<svg width="63" height="80" viewBox="0 0 63 80" fill="none" xmlns="http://www.w3.org/2000/svg">
<g clip-path="url(#clip0_225_816)">
<path d="M6.56641 62.2028C6.85593 63.0642 7.10492 63.8208 7.37707 64.6355C9.99435 63.5414 12.5421 62.4764 15.1594 61.3822C14.8989 60.6198 14.6614 59.9273 14.3777 59.1125C11.7141 60.1717 9.15473 61.1844 6.5722 62.2087L6.56641 62.2028Z" fill="white"/>
<path d="M29.9481 10.5805C30.3476 10.6213 30.7182 10.9006 31.1178 11.0112C31.4015 11.0927 31.7315 11.1567 32.0095 11.0927C32.5885 10.9588 33.1328 10.6678 33.7177 10.5631C34.6905 10.3885 35.2232 9.73666 34.98 8.83458C34.8873 8.49121 34.7542 8.15948 34.592 7.83938C34.2793 7.23412 34.3372 6.64631 34.592 6.04686C34.9047 5.2961 34.8468 5.2379 33.9667 5.09822C33.1849 4.97019 32.409 4.79559 31.4999 4.61517C31.222 4.70247 30.7588 4.87125 30.2839 4.98183C29.8207 5.08658 29.3343 5.10404 28.8769 5.22626C28.7321 5.267 28.5236 5.58709 28.57 5.66857C29.1316 6.67541 28.8479 7.60077 28.4657 8.59597C28.0199 9.7483 28.6395 10.435 29.9597 10.5747L29.9481 10.5805Z" fill="white"/>
<path d="M48.0027 61.1203C50.6663 62.3076 53.2604 63.4599 55.9066 64.6355C56.2077 63.8498 56.4625 63.1922 56.7463 62.4589C54.1406 61.3007 51.5985 60.1658 49.0334 59.0251C48.6744 59.7585 48.3617 60.3928 48.0085 61.1203H48.0027Z" fill="white"/>
<path d="M62.8727 76.0076C62.2125 73.4177 61.5988 70.8162 60.8228 68.2613C60.4175 66.9344 59.6937 65.7064 59.161 64.4144C59.0394 64.1117 58.9989 63.7043 59.0915 63.4017C59.5779 61.8536 59.051 60.55 57.5686 59.9272C55.1193 58.8855 52.6699 57.8321 50.1858 56.8893C49.5662 56.6565 48.6455 56.5459 48.136 56.8427C47.0647 57.4829 46.0514 57.2152 44.986 57.1163C44.2332 57.0464 43.7468 56.7962 43.5673 55.9581C43.382 55.0909 42.7335 54.2412 42.3687 53.4323C42.056 52.7397 41.4654 51.3429 41.9286 50.9064C45.0902 47.9383 46.451 43.5559 47.5048 38.9059C47.5801 38.5858 47.777 38.2366 48.0028 38.0445C49.3346 36.9038 50.1395 36.9155 50.5159 35.0298C50.9154 33.0045 50.8285 34.4304 50.5795 32.3992C50.3827 30.8221 49.96 29.3846 48.7613 28.4534C48.6166 28.3428 48.5471 28.0343 48.5124 27.8074C48.3271 26.7307 48.1591 22.1795 48.0144 21.2775C46.5726 22.197 45.2639 23.2155 43.8453 23.9081C40.5795 25.5085 37.1226 26.0148 33.6193 26.2302C29.7513 26.4688 25.9296 26.1196 22.1659 25.0313C19.647 24.298 17.244 23.2213 15.142 20.9807C14.951 22.1446 14.8178 26.5736 14.6325 27.5222C14.563 27.8888 14.453 28.3428 14.2272 28.5407C13.347 29.3264 12.7853 30.3797 12.6637 31.631C12.4784 33.5399 12.3163 32.0151 12.409 33.9182C12.5306 36.3102 13.4223 36.7641 15.1305 38.1726C15.3563 38.3588 15.5358 38.7313 15.6111 39.063C16.5086 43.0904 18.2226 48.078 20.7472 50.9181C21.2973 51.535 21.3031 52.0646 21.4536 52.7979C21.61 53.5545 19.9307 54.5031 19.7281 55.3936C19.4617 56.5925 18.9637 57.3083 17.574 57.2501C16.7865 57.2152 16.0627 57.3374 15.281 56.9067C14.7541 56.6157 13.8913 56.5575 13.3181 56.7729C10.6429 57.7855 8.00822 58.9146 5.37936 60.0436C4.35446 60.4801 3.61328 61.5452 3.94333 62.5287C4.36025 63.8033 3.77541 64.6472 3.26006 65.6191C2.94738 66.1953 2.67523 66.8122 2.50151 67.4465C1.67348 70.467 0.880191 73.4934 0.0926909 76.5255C0.00583428 76.8514 -0.0173275 77.2123 0.0289961 77.5498C0.249033 79.1154 1.44765 80 3.33534 80C18.7958 80 34.2505 80.0058 49.711 80.0116C53.0636 80.0116 56.4221 80.0233 59.7748 80.0116C62.0736 80 63.4401 78.2424 62.8784 76.025L62.8727 76.0076ZM7.37707 64.6355C7.10492 63.8207 6.85593 63.07 6.5664 62.2028C9.14894 61.1785 11.7083 60.1659 14.3719 59.1066C14.6499 59.9214 14.8873 60.614 15.1536 61.3764C12.5363 62.4705 9.98855 63.5356 7.37127 64.6297L7.37707 64.6355ZM31.5 62.3018L20.6777 57.2152L23.0923 53.2402L31.5 56.7671L40.7705 53.409L42.4961 57.2152L31.5 62.3018ZM55.9068 64.6355C53.2605 63.4599 50.6722 62.3076 48.0028 61.1203C48.3618 60.3928 48.6687 59.7527 49.0277 59.0252C51.5929 60.1659 54.1349 61.3007 56.7406 62.4589C56.4568 63.1922 56.2021 63.8498 55.901 64.6355H55.9068Z" fill="white"/>
<path d="M15.0435 15.9872C15.1593 16.22 15.5357 16.4179 15.7673 16.3888C19.1836 15.9639 22.5942 15.3528 26.0164 15.0677C33.1733 14.474 40.2956 14.9222 47.3715 16.412C47.7595 16.4935 47.9737 16.3888 48.1706 15.9523C48.9176 14.282 49.763 12.9318 50.5331 11.6514C51.3669 10.2663 51.0542 9.43984 49.4908 8.80547C47.2094 7.88011 44.8295 7.11189 42.6928 5.95955C40.0524 4.5395 37.603 2.80518 35.09 1.18726C34.1751 0.599449 33.237 0.122219 32.0847 0.0232814C30.3824 -0.122215 29.0216 0.506331 27.7245 1.42587C24.8409 3.48611 21.9457 5.54052 18.5699 6.89655C16.8327 7.58912 15.1072 8.29914 13.37 8.99171C12.5999 9.30016 12.2409 9.84141 12.1946 10.7086C12.2583 10.8832 12.3046 11.18 12.4552 11.4244C13.2832 12.7979 14.1749 14.2412 15.0493 15.993L15.0435 15.9872ZM28.4541 8.59596C28.8363 7.60076 29.12 6.6754 28.5584 5.66856C28.512 5.58708 28.7205 5.26117 28.8653 5.22625C29.3227 5.10403 29.8091 5.09239 30.2723 4.98181C30.7472 4.87124 31.2104 4.70246 31.4883 4.61516C32.3974 4.79558 33.1733 4.97017 33.9551 5.09821C34.8294 5.23789 34.8931 5.29609 34.5804 6.04685C34.3256 6.65212 34.2735 7.23411 34.5804 7.83937C34.7426 8.15365 34.8757 8.4912 34.9684 8.83457C35.2116 9.73665 34.6847 10.3885 33.7061 10.5631C33.1212 10.6678 32.5769 10.9588 31.9979 11.0927C31.7257 11.1567 31.3899 11.0927 31.1062 11.0112C30.7066 10.9006 30.3418 10.6213 29.9365 10.5805C28.6163 10.4409 27.9967 9.75411 28.4426 8.60178L28.4541 8.59596Z" fill="white"/>
</g>
<defs>
<clipPath id="clip0_225_816">
<rect width="63" height="80" fill="white"/>
</clipPath>
</defs>
</svg>
