<svg width="66" height="82" viewBox="0 0 66 82" fill="none" xmlns="http://www.w3.org/2000/svg">
<path d="M33.9196 81.4997H32.1639C23.5976 70.6743 14.9827 59.8872 6.48278 49.0106C0.746875 41.6772 -1.29629 33.4014 0.808789 24.4051C3.85585 11.4095 14.4034 2.43874 28.7321 0.336763C44.6927 -2.00398 60.8036 8.10088 64.9784 23.0834C65.3543 24.4349 65.6595 25.8078 66 27.1722V34.8127C65.8673 35.0514 65.655 35.2817 65.6152 35.5332C64.8059 40.6795 62.608 45.2458 59.3619 49.356C50.8974 60.0834 42.4018 70.7894 33.9196 81.504V81.4997ZM20.2277 30.8731C20.2233 37.5883 25.9857 43.0842 32.9997 43.0543C39.943 43.0245 45.6125 37.5073 45.6877 30.711C45.7585 23.9659 39.8678 18.3678 32.7521 18.4189C25.8265 18.4701 20.2366 24.0299 20.2322 30.8731H20.2277Z" fill="white"/>
</svg>
