<svg width="181" height="147" viewBox="0 0 181 147" fill="none" xmlns="http://www.w3.org/2000/svg">
<g clip-path="url(#clip0_370_116)">
<path d="M88.871 95.4262V94.9191C93.2417 93.6287 97.6049 92.3309 101.976 91.0555C106.988 89.5936 112.142 88.5047 116.52 85.387C120.622 82.4707 123.844 78.9204 124.829 73.8113C125.679 69.4033 123.889 63.9436 117.124 64.861C112.418 65.495 107.711 66.0917 103.012 66.8077C93.3834 68.2696 83.7992 70.1119 74.1329 71.2232C64.2652 72.3569 54.3155 72.7 44.4179 73.5652C38.4511 74.0873 32.8646 75.7133 28.203 79.8677C22.0646 85.3423 16.8063 91.5776 11.9135 98.1337C7.95303 103.444 4.22375 108.926 0.367676 114.371C11.4884 125.141 22.3779 135.688 33.3271 146.286C34.1624 145.503 34.8635 144.839 35.5795 144.183C41.2406 138.977 47.1329 134.054 53.7113 130.012C56.9036 128.05 60.2226 126.387 64.0638 126.267C77.2282 125.857 90.4 125.425 103.564 125.111C112.97 124.888 122.047 123.508 130.751 119.622C144.751 113.364 157.609 105.294 169.67 95.911C172.839 93.4423 175.801 90.6975 178.739 87.9528C180.977 85.8569 181.126 83.4478 179.455 80.8671C177.926 78.5028 175.577 77.4287 172.966 76.8097C168.073 75.6536 163.442 76.8768 159.146 78.9801C151.441 82.7541 143.908 86.8862 136.307 90.8691C131.989 93.129 127.618 95.2696 122.778 96.2243C111.403 98.4544 100.118 97.5072 88.8561 95.4412L88.871 95.4262Z" fill="white"/>
<path d="M88.8712 95.4264C100.134 97.4924 111.426 98.4397 122.793 96.2095C127.633 95.2623 132.004 93.1217 136.323 90.8543C143.923 86.8714 151.456 82.7468 159.161 78.9653C163.457 76.862 168.089 75.6388 172.981 76.7949C175.592 77.414 177.941 78.488 179.47 80.8524C181.141 83.433 180.992 85.8496 178.754 87.938C175.816 90.6827 172.855 93.435 169.685 95.8963C157.624 105.279 144.766 113.349 130.766 119.607C122.062 123.493 112.977 124.88 103.579 125.097C90.4077 125.402 77.2433 125.842 64.0789 126.253C60.2378 126.372 56.9187 128.035 53.7264 129.997C47.148 134.032 41.2557 138.955 35.5947 144.168C34.8787 144.824 34.1776 145.496 33.3422 146.271C22.393 135.673 11.5035 125.119 0.382812 114.356C4.23889 108.911 7.96817 103.429 11.9287 98.1189C16.814 91.5629 22.0723 85.32 28.2182 79.8529C32.8798 75.6985 38.4662 74.0725 44.4331 73.5504C54.3306 72.6852 64.2803 72.3421 74.148 71.2084C83.8143 70.0971 93.3986 68.2623 103.028 66.793C107.719 66.077 112.433 65.4877 117.139 64.8463C123.904 63.9289 125.694 69.3886 124.844 73.7966C123.859 78.9057 120.637 82.4485 116.535 85.3722C112.157 88.4899 107.003 89.5789 101.991 91.0408C97.6201 92.3162 93.2568 93.614 88.8936 94.9043V95.4115L88.8712 95.4264Z" fill="white"/>
<path d="M86.9619 20.0949C86.9619 23.1007 88.3641 24.9653 94.0103 26.4645V14.2324C89.6022 14.4413 86.9619 16.925 86.9619 20.0874V20.0949Z" fill="white"/>
<path d="M97.0161 31.1335V43.6191C101.469 43.3581 104.221 40.9266 104.221 37.5031C104.221 34.4451 102.67 32.5804 97.0161 31.1335Z" fill="white"/>
<path d="M94.965 0.463928C78.683 0.463928 65.4888 13.6656 65.4888 29.9402C65.4888 46.2147 78.6904 59.4164 94.965 59.4164C111.24 59.4164 124.441 46.2147 124.441 29.9402C124.441 13.6656 111.247 0.463928 94.965 0.463928ZM97.1727 47.0426V50.7197C97.1727 51.5998 96.397 52.3755 95.5169 52.3755C94.6368 52.3755 93.8611 51.5998 93.8611 50.7197V46.9382C89.6098 46.5728 85.9849 44.9692 82.6136 42.3288C82.0468 41.9112 81.7335 41.3965 81.7335 40.673C81.7335 39.6363 82.6136 38.8084 83.6504 38.8084C84.165 38.8084 84.5827 39.0172 84.8437 39.2261C87.5885 41.5606 90.4377 43.0598 94.0178 43.4775V30.4697C86.3504 28.6573 82.9791 25.8081 82.9791 20.3634C82.9791 15.023 87.4841 11.0849 93.8611 10.7791V9.17553C93.8611 8.29542 94.6368 7.51973 95.5169 7.51973C96.397 7.51973 97.1727 8.29542 97.1727 9.17553V10.8835C100.596 11.249 103.289 12.3902 105.929 14.2026C106.496 14.6203 106.966 15.1349 106.966 15.9106C106.966 16.9996 106.086 17.7753 104.997 17.7753C104.631 17.7753 104.273 17.723 103.856 17.4098C101.573 15.754 99.3506 14.7695 97.0161 14.404V27.2029C104.892 28.9631 108.211 32.0211 108.211 37.257C108.211 42.7987 103.654 46.6399 97.1727 47.0501V47.0426Z" fill="white"/>
</g>
<defs>
<clipPath id="clip0_370_116">
<rect width="180.221" height="145.822" fill="white" transform="translate(0.375488 0.463898)"/>
</clipPath>
</defs>
</svg>
