<svg width="164" height="150" viewBox="0 0 164 150" fill="none" xmlns="http://www.w3.org/2000/svg">
<g clip-path="url(#clip0_226_1430)">
<path d="M26.3516 91.7501C26.7226 92.8505 27.0417 93.817 27.3905 94.8578C30.7447 93.4601 34.0098 92.0995 37.3641 90.7018C37.0301 89.7278 36.7259 88.8431 36.3622 87.8022C32.9487 89.1554 29.6687 90.449 26.359 91.7575L26.3516 91.7501Z" fill="#B4A89C"/>
<path d="M56.317 25.7964C56.829 25.8484 57.304 26.2053 57.816 26.3465C58.1796 26.4506 58.6026 26.5324 58.9588 26.4506C59.7009 26.2796 60.3984 25.9079 61.1479 25.7741C62.3946 25.551 63.0774 24.7183 62.7657 23.5659C62.647 23.1273 62.4763 22.7035 62.2685 22.2946C61.8678 21.5214 61.942 20.7705 62.2685 20.0047C62.6692 19.0456 62.595 18.9713 61.467 18.7928C60.4652 18.6293 59.4708 18.4062 58.3058 18.1832C57.9496 18.2947 57.3559 18.5103 56.7474 18.6516C56.1537 18.7854 55.5304 18.8077 54.9441 18.9638C54.7586 19.0159 54.4915 19.4248 54.5508 19.5289C55.2707 20.8151 54.907 21.9972 54.4173 23.2685C53.8459 24.7406 54.6399 25.6179 56.3318 25.7964H56.317Z" fill="#B4A89C"/>
<path d="M79.4551 90.3598C82.8687 91.8765 86.1932 93.3486 89.5845 94.8504C89.9704 93.8467 90.2969 93.0066 90.6605 92.0698C87.3211 90.5903 84.0634 89.1405 80.776 87.6833C80.3159 88.6201 79.9152 89.4305 79.4625 90.3598H79.4551Z" fill="#B4A89C"/>
<path d="M98.5036 109.378C97.6576 106.069 96.871 102.746 95.8766 99.4823C95.3572 97.7871 94.4296 96.2184 93.7469 94.5679C93.591 94.1813 93.5391 93.6608 93.6578 93.2742C94.2812 91.2966 93.6059 89.6312 91.7061 88.8357C88.5671 87.5049 85.4281 86.1592 82.2446 84.9547C81.4506 84.6573 80.2707 84.5161 79.6176 84.8953C78.2448 85.7131 76.9461 85.3711 75.5807 85.2447C74.616 85.1555 73.9927 84.8358 73.7626 83.7652C73.5252 82.6574 72.694 81.5719 72.2265 80.5385C71.8258 79.6538 71.0689 77.8694 71.6625 77.3118C75.7143 73.5201 77.4582 67.9217 78.8088 61.9813C78.9052 61.5724 79.1575 61.1263 79.447 60.881C81.1537 59.4238 82.1852 59.4386 82.6676 57.0298C83.1796 54.4425 83.0683 56.264 82.7492 53.6693C82.4969 51.6545 81.9552 49.8181 80.4191 48.6285C80.2336 48.4872 80.1445 48.0932 80.1 47.8032C79.8625 46.4278 79.6473 40.6138 79.4618 39.4614C77.614 40.6361 75.9369 41.9372 74.1188 42.822C69.9335 44.8665 65.5033 45.5133 61.0137 45.7884C56.0566 46.0933 51.1588 45.6472 46.3353 44.2569C43.1072 43.3201 40.0276 41.9372 37.3338 39.0823C37.089 40.5692 36.9183 46.2271 36.6808 47.4389C36.5918 47.9073 36.4508 48.4872 36.1613 48.74C35.0334 49.7437 34.3136 51.0894 34.1577 52.6879C33.9203 55.1265 33.7125 53.1786 33.8312 55.6097C33.9871 58.6654 35.1299 59.2453 37.319 61.0446C37.6084 61.2825 37.8385 61.7583 37.9349 62.1821C39.0851 67.3269 41.2817 73.6985 44.5172 77.3267C45.2222 78.1148 45.2296 78.7913 45.4225 79.7281C45.6155 80.6946 43.4709 81.9065 43.2111 83.044C42.8698 84.5756 42.2316 85.49 40.4506 85.4157C39.4413 85.3711 38.5137 85.5272 37.5119 84.977C36.8366 84.6053 35.7309 84.531 34.9963 84.806C31.5679 86.0997 28.1914 87.542 24.8223 88.9844C23.5089 89.542 22.559 90.9025 22.982 92.159C23.5163 93.7872 22.7668 94.8653 22.1063 96.1069C21.7056 96.8429 21.3568 97.631 21.1342 98.4414C20.073 102.3 19.0564 106.166 18.0471 110.04C17.9358 110.456 17.9061 110.917 17.9655 111.348C18.2475 113.348 19.7836 114.478 22.2028 114.478C42.0164 114.478 61.8225 114.486 81.6361 114.493C85.9328 114.493 90.2368 114.508 94.5335 114.493C97.4795 114.478 99.2309 112.233 98.511 109.4L98.5036 109.378ZM27.3825 94.8504C27.0337 93.8095 26.7147 92.8505 26.3436 91.7427C29.6533 90.4342 32.9333 89.1405 36.3469 87.7874C36.7031 88.8282 37.0073 89.713 37.3487 90.6869C33.9945 92.0847 30.7293 93.4452 27.3751 94.843L27.3825 94.8504ZM58.2976 91.8765L44.4281 85.3785L47.5226 80.3006L58.2976 84.806L70.1784 80.5162L72.3898 85.3785L58.2976 91.8765ZM89.5764 94.8504C86.1851 93.3486 82.868 91.8765 79.447 90.3598C79.907 89.4305 80.3004 88.6126 80.7604 87.6833C84.0479 89.1405 87.3056 90.5903 90.645 92.0698C90.2813 93.0066 89.9548 93.8467 89.5689 94.8504H89.5764Z" fill="#B4A89C"/>
<path d="M37.2155 32.7032C37.3639 33.0006 37.8463 33.2534 38.1431 33.2162C42.5214 32.6735 46.8922 31.8929 51.2779 31.5285C60.4501 30.7702 69.5777 31.3427 78.6459 33.246C79.1431 33.3501 79.4177 33.2162 79.67 32.6586C80.6273 30.5249 81.7107 28.8 82.6977 27.1643C83.7663 25.3949 83.3655 24.3391 81.3619 23.5287C78.4381 22.3466 75.3882 21.3652 72.6499 19.8932C69.266 18.0791 66.127 15.8635 62.9064 13.7967C61.7339 13.0457 60.5317 12.4361 59.055 12.3097C56.8732 12.1238 55.1293 12.9268 53.4671 14.1015C49.7715 16.7334 46.0611 19.3578 41.7348 21.0901C39.5085 21.9749 37.2971 22.8819 35.0709 23.7667C34.0839 24.1607 33.6238 24.8521 33.5645 25.9599C33.6461 26.183 33.7054 26.5621 33.8984 26.8744C34.9596 28.629 36.1024 30.4728 37.2229 32.7107L37.2155 32.7032ZM54.4021 23.2685C54.8919 21.9972 55.2555 20.8151 54.5357 19.5288C54.4763 19.4248 54.7435 19.0084 54.929 18.9638C55.5152 18.8077 56.1386 18.7928 56.7322 18.6515C57.3407 18.5103 57.9344 18.2947 58.2906 18.1832C59.4557 18.4136 60.4501 18.6367 61.4519 18.7928C62.5724 18.9712 62.654 19.0456 62.2533 20.0047C61.9268 20.7779 61.86 21.5288 62.2533 22.2946C62.4611 22.6961 62.6318 23.1273 62.7505 23.5659C63.0696 24.7183 62.3869 25.551 61.1328 25.774C60.3833 25.9079 59.6857 26.2796 58.9436 26.4506C58.5949 26.5324 58.1645 26.4506 57.8008 26.3465C57.2888 26.2053 56.8213 25.8484 56.3018 25.7963C54.6099 25.6179 53.8159 24.7406 54.3873 23.2685H54.4021Z" fill="#B4A89C"/>
<path d="M128.559 43.7885C119.379 34.5917 104.448 34.5917 95.2763 43.7885C86.0967 52.9853 86.0967 67.944 95.2763 77.1334C103.825 85.6982 117.361 86.2781 126.592 78.888L129.739 82.0403L127.445 84.3376L155.689 112.634L164 104.307L135.757 76.0107L133.464 78.3081L130.317 75.1557C137.694 65.9069 137.115 52.3459 128.566 43.781L128.559 43.7885ZM98.393 74.0182C90.9351 66.5463 90.9351 54.383 98.393 46.9036C105.851 39.4243 117.991 39.4317 125.457 46.9036C132.915 54.3756 132.915 66.5388 125.457 74.0182C117.999 81.4901 105.858 81.4901 98.393 74.0182Z" fill="#B4A89C"/>
<path d="M124.833 143.236L20.2366 124.76L20.5111 123.207L125.397 132.403L129.122 89.7873L124.328 84.9845L120.677 126.768L18.5966 117.816L14.8639 117.489L14.901 117.088H116.611V86.8134C115.089 87.0811 113.524 87.2298 111.928 87.2298C111.757 87.2298 111.587 87.2223 111.416 87.2149V111.876H5.19457V5.46971H111.409V33.2906C111.579 33.2906 111.75 33.2757 111.921 33.2757C113.516 33.2757 115.082 33.4244 116.603 33.6921V19.5809L129.924 20.7481L128.811 33.469L128.336 38.8815C130.131 40.2644 131.742 41.8703 133.129 43.6546L133.73 36.7552L143.266 38.4429L137.129 73.3268L141.611 77.8173L149.285 34.2125L134.191 31.5434L135.549 16.0122L116.603 14.3542V0.265381H0V117.088H9.67674L9.23149 122.218L15.3091 122.753L14.2109 128.983L129.041 149.273L137.953 98.6495L133.471 94.159L124.833 143.243V143.236Z" fill="#B4A89C"/>
<path d="M111.92 33.2831C111.75 33.2831 111.579 33.2906 111.408 33.298L116.603 33.6995C115.082 33.4318 113.516 33.2831 111.92 33.2831Z" fill="#B4A89C"/>
<path d="M111.92 87.2298C113.516 87.2298 115.082 87.0811 116.603 86.8134L111.408 87.2149C111.579 87.2149 111.75 87.2298 111.92 87.2298Z" fill="#B4A89C"/>
</g>
<defs>
<clipPath id="clip0_226_1430">
<rect width="164" height="149" fill="white" transform="translate(0 0.265381)"/>
</clipPath>
</defs>
</svg>
