<svg width="28" height="24" viewBox="0 0 28 24" fill="none" xmlns="http://www.w3.org/2000/svg">
<path d="M14 0L27.8564 24H0.143594L14 0Z" fill="#888888"/>
<path d="M12 20.0687C12 19.8035 12.0518 19.5484 12.1503 19.3132C12.2539 19.073 12.3938 18.8679 12.5751 18.6928C12.7565 18.5177 12.9689 18.3826 13.2176 18.2825C13.4663 18.1825 13.7254 18.1374 14 18.1374C14.2746 18.1374 14.5389 18.1875 14.7824 18.2825C15.0311 18.3826 15.2435 18.5177 15.4249 18.6928C15.6062 18.8679 15.7461 19.073 15.8497 19.3132C15.9534 19.5534 16 19.8035 16 20.0687C16 20.3339 15.9482 20.5891 15.8497 20.8242C15.7461 21.0644 15.6062 21.2695 15.4249 21.4446C15.2435 21.6197 15.0311 21.7548 14.7824 21.8549C14.5337 21.955 14.2746 22 14 22C13.7254 22 13.4611 21.95 13.2176 21.8549C12.9689 21.7548 12.7565 21.6197 12.5751 21.4446C12.3938 21.2695 12.2539 21.0644 12.1503 20.8242C12.0466 20.5841 12 20.3339 12 20.0687ZM15.6321 16.9616H12.3679V7H15.6321V16.9616Z" fill="white"/>
</svg>
