<?xml version="1.0" encoding="UTF-8"?>
<svg xmlns="http://www.w3.org/2000/svg" version="1.1" viewBox="0 0 144 144">
  <defs>
    <style>
      .cls-1 {
        fill: #fff;
      }
    </style>
  </defs>
  <!-- Generator: Adobe Illustrator 28.7.4, SVG Export Plug-In . SVG Version: 1.2.0 Build 166)  -->
  <g>
    <g id="Layer_1">
      <path class="cls-1" d="M77.2,32.5c-12.2-12.2-32.1-12.2-44.3,0-12.2,12.2-12.2,32.1,0,44.3,11.4,11.4,29.4,12.1,41.7,2.3l4.2,4.2-3.1,3.1,37.6,37.6,11.1-11.1-37.6-37.6-3.1,3.1-4.2-4.2c9.8-12.3,9-30.3-2.3-41.7ZM37.1,72.6c-9.9-9.9-9.9-26.1,0-36s26.1-9.9,36,0c9.9,9.9,9.9,26.1,0,36-9.9,9.9-26.1,9.9-36,0Z"/>
    </g>
  </g>
</svg>
