<svg width="19" height="23" viewBox="0 0 19 23" fill="none" xmlns="http://www.w3.org/2000/svg">
<g clip-path="url(#clip0_226_1100)">
<path d="M18.2669 23H0.733099C0.328683 23 0 22.6588 0 22.2389V17.3797C0 13.5993 2.96118 10.525 6.60244 10.525C6.79632 10.525 6.98262 10.6052 7.12046 10.7483L9.5 13.2188L11.8795 10.7483C12.0174 10.6052 12.2037 10.525 12.3976 10.525C16.0388 10.525 19 13.5993 19 17.3797V22.2389C19 22.6588 18.6713 23 18.2669 23Z" fill="#888888"/>
<path d="M14.1782 6.00104C14.7288 3.31858 13.0806 0.680606 10.4969 0.108963C7.91316 -0.46268 5.37227 1.24848 4.82167 3.93094C4.27106 6.6134 5.91924 9.25137 8.50298 9.82301C11.0867 10.3947 13.6276 8.6835 14.1782 6.00104Z" fill="#888888"/>
</g>
<defs>
<clipPath id="clip0_226_1100">
<rect width="19" height="23" fill="white"/>
</clipPath>
</defs>
</svg>
