<svg width="198" height="150" viewBox="0 0 198 150" fill="none" xmlns="http://www.w3.org/2000/svg">
<g clip-path="url(#clip0_226_1383)">
<path d="M74.2432 91.7776C74.6161 92.8815 74.9368 93.8511 75.2874 94.8953C78.6586 93.4931 81.9404 92.1282 85.3117 90.726C84.976 89.7489 84.6702 88.8613 84.3048 87.8171C80.8738 89.1671 77.5771 90.4724 74.2506 91.7851L74.2432 91.7776Z" fill="#FFFFFF"/>
<path d="M104.36 25.6127C104.875 25.6649 105.352 26.0229 105.867 26.1646C106.233 26.269 106.658 26.3511 107.016 26.269C107.762 26.0975 108.463 25.7245 109.216 25.5903C110.469 25.3665 111.155 24.5312 110.842 23.3751C110.723 22.935 110.551 22.5099 110.342 22.0997C109.939 21.324 110.014 20.5707 110.335 19.8024C110.738 18.8403 110.663 18.7657 109.529 18.5867C108.522 18.4226 107.523 18.1989 106.352 17.9751C105.994 18.087 105.397 18.3033 104.786 18.445C104.189 18.5792 103.562 18.6016 102.973 18.7582C102.787 18.8105 102.518 19.2207 102.578 19.3251C103.301 20.6154 102.936 21.8013 102.444 23.0768C101.869 24.5535 102.667 25.4337 104.368 25.6127H104.36Z" fill="#FFFFFF"/>
<path d="M127.616 90.3827C131.047 91.9043 134.389 93.3811 137.797 94.8877C138.185 93.8808 138.513 93.038 138.879 92.0982C135.522 90.6139 132.248 89.1595 128.944 87.6976C128.481 88.6374 128.079 89.4504 127.624 90.3827H127.616Z" fill="#FFFFFF"/>
<path d="M146.77 109.462C145.92 106.143 145.129 102.809 144.13 99.5345C143.607 97.834 142.675 96.2602 141.989 94.6044C141.832 94.2166 141.78 93.6945 141.899 93.3066C142.526 91.3226 141.847 89.6519 139.938 88.8539C136.783 87.5188 133.628 86.1688 130.428 84.9605C129.63 84.6621 128.444 84.5204 127.788 84.9008C126.408 85.7213 125.103 85.3782 123.73 85.2514C122.761 85.1619 122.134 84.8411 121.903 83.7671C121.664 82.6558 120.829 81.5668 120.359 80.5301C119.956 79.6425 119.196 77.8525 119.792 77.2931C123.865 73.4892 125.617 67.8729 126.975 61.9135C127.072 61.5033 127.325 61.0558 127.616 60.8097C129.332 59.3478 130.369 59.3627 130.853 56.9461C131.368 54.3505 131.256 56.1779 130.935 53.5749C130.682 51.5536 130.137 49.7113 128.593 48.518C128.407 48.3762 128.317 47.9809 128.273 47.6901C128.034 46.3102 127.818 40.4776 127.631 39.3216C125.774 40.5 124.088 41.8053 122.261 42.6928C118.054 44.7439 113.602 45.3928 109.089 45.6688C104.107 45.9746 99.1843 45.5271 94.3362 44.1323C91.0917 43.1925 87.9964 41.8052 85.289 38.9412C85.0428 40.4329 84.8713 46.1088 84.6326 47.3246C84.5431 47.7945 84.4014 48.3762 84.1105 48.6298C82.9768 49.6367 82.2533 50.9867 82.0967 52.5903C81.858 55.0367 81.6492 53.0826 81.7685 55.5215C81.9251 58.587 83.0738 59.1688 85.274 60.9738C85.5649 61.2124 85.7961 61.6898 85.8931 62.1149C87.0492 67.2762 89.2569 73.6682 92.5088 77.308C93.2174 78.0986 93.2249 78.7773 93.4188 79.7171C93.6202 80.6867 91.4572 81.9025 91.1961 83.0436C90.853 84.5801 90.2116 85.4975 88.4216 85.4229C87.4072 85.3782 86.4749 85.5348 85.468 84.9829C84.7892 84.6099 83.6779 84.5354 82.9395 84.8113C79.4937 86.1091 76.1 87.5561 72.7138 89.003C71.3937 89.5624 70.439 90.9273 70.8641 92.1878C71.4011 93.8213 70.6478 94.9028 69.984 96.1483C69.5812 96.8867 69.2307 97.6773 69.0069 98.4903C67.9403 102.361 66.9185 106.24 65.9042 110.126C65.7923 110.543 65.7624 111.006 65.8221 111.438C66.1055 113.445 67.6495 114.578 70.0809 114.578C89.9953 114.578 109.902 114.586 129.817 114.593C134.135 114.593 138.461 114.608 142.78 114.593C145.741 114.578 147.501 112.326 146.777 109.484L146.77 109.462ZM75.287 94.8878C74.9365 93.8436 74.6158 92.8815 74.2428 91.7702C77.5693 90.4574 80.866 89.1597 84.297 87.8022C84.655 88.8464 84.9608 89.734 85.3039 90.711C81.9326 92.1133 78.6508 93.4782 75.2796 94.8804L75.287 94.8878ZM106.359 91.9044L92.4193 85.3856L95.5296 80.2914L106.359 84.8113L118.301 80.5077L120.523 85.3856L106.359 91.9044ZM137.797 94.8878C134.389 93.3812 131.055 91.9044 127.616 90.3829C128.079 89.4505 128.474 88.6301 128.936 87.6978C132.241 89.1597 135.515 90.6141 138.871 92.0983C138.506 93.0381 138.178 93.8809 137.79 94.8878H137.797Z" fill="#FFFFFF"/>
<path d="M85.1628 32.5418C85.3119 32.8402 85.7968 33.0937 86.0951 33.0565C90.4956 32.512 94.8887 31.7288 99.2967 31.3634C108.516 30.6026 117.69 31.1769 126.804 33.0863C127.304 33.1907 127.58 33.0565 127.833 32.4971C128.795 30.3565 129.884 28.6261 130.876 26.9852C131.95 25.21 131.548 24.1509 129.534 23.3379C126.595 22.152 123.53 21.1675 120.777 19.6907C117.376 17.8708 114.221 15.6482 110.984 13.5747C109.806 12.8214 108.598 12.2098 107.113 12.083C104.921 11.8965 103.168 12.702 101.497 13.8805C97.7827 16.5208 94.0534 19.1537 89.705 20.8915C87.4675 21.7791 85.2448 22.6891 83.0073 23.5766C82.0153 23.9719 81.5528 24.6656 81.4932 25.7769C81.5752 26.0007 81.6349 26.381 81.8288 26.6943C82.8954 28.4545 84.044 30.3042 85.1702 32.5493L85.1628 32.5418ZM102.437 23.0769C102.929 21.8015 103.295 20.6156 102.571 19.3252C102.511 19.2208 102.78 18.8031 102.966 18.7584C103.556 18.6018 104.182 18.5868 104.779 18.4451C105.39 18.3034 105.987 18.0871 106.345 17.9752C107.516 18.2065 108.516 18.4302 109.522 18.5868C110.649 18.7658 110.731 18.8404 110.328 19.8026C110.007 20.5783 109.933 21.3241 110.335 22.0998C110.544 22.5026 110.716 22.9352 110.835 23.3752C111.148 24.5313 110.47 25.3667 109.209 25.5904C108.456 25.7247 107.755 26.0976 107.009 26.2692C106.658 26.3512 106.226 26.2692 105.86 26.1647C105.346 26.023 104.876 25.665 104.354 25.6128C102.653 25.4338 101.855 24.5537 102.429 23.0769H102.437Z" fill="#FFFFFF"/>
<path d="M182.638 31.3931L184.003 15.8122L164.961 14.1489V0H47.7646V41.7754H52.9856V5.22099H159.74V111.975H52.9856V69.1483H47.7646V117.196H57.4906L57.0431 122.343L63.1517 122.88L62.0478 129.13L177.462 149.484L197.816 34.0707L182.645 31.3931H182.638ZM62.7265 117.196H164.954V19.3848L178.342 20.5558L177.223 33.3174L169.033 126.9L66.4334 117.927L62.6892 117.599L62.7265 117.196ZM173.225 143.428L68.0967 124.894L68.3727 123.335L173.792 132.561L182.183 36.6141L191.767 38.3072L173.233 143.436L173.225 143.428Z" fill="#FFFFFF"/>
<path d="M60.5788 46.3176H39.307V25.0383H21.5482V46.3176H0.276367V64.069H21.5482V85.3408H39.307V64.069H60.5788V46.3176Z" fill="#FFFFFF"/>
</g>
<defs>
<clipPath id="clip0_226_1383">
<rect width="197.533" height="149.477" fill="white" transform="translate(0.276367)"/>
</clipPath>
</defs>
</svg>
