<svg width="66" height="86" viewBox="0 0 66 86" fill="none" xmlns="http://www.w3.org/2000/svg">
<g clip-path="url(#clip0_309_798)">
<path d="M37.7498 35.76C37.7498 32.67 35.4698 30.92 31.5698 30.92C27.6698 30.92 24.5898 32.47 21.4998 35.56L15.3198 28.78C19.2198 24.48 24.4598 21.53 31.7798 21.53C41.4498 21.53 48.0398 26.5 48.0398 35.5C48.0398 44.5 42.1298 47.59 34.8098 49.07L34.0698 53.17H27.2198L25.6698 42.29L26.0098 41.95C34.4698 41.61 37.7698 39.4 37.7698 35.77L37.7498 35.76ZM24.9898 69.14V58.39H35.8698V69.14H24.9898Z" fill="white"/>
<path d="M0 0.01H1.09C18.2 0.01 35.31 0.02 52.42 0C53.24 0 53.82 0.21 54.43 0.81C57.94 4.29 61.49 7.72 65.07 11.13C65.64 11.68 65.81 12.23 65.81 12.99C65.8 34.69 65.8 56.4 65.8 78.1C65.8 80.54 65.8 82.98 65.8 85.49H0V0.01ZM5.62 79.88H6.76C24.17 79.88 41.57 79.88 58.98 79.88C59.7667 79.88 60.16 79.4767 60.16 78.67C60.16 60.76 60.16 42.86 60.16 24.95C60.16 21.83 60.14 18.71 60.17 15.58C60.17 14.89 59.98 14.67 59.27 14.68C56.74 14.72 54.2 14.7 51.67 14.69C51.36 14.69 51.05 14.66 50.67 14.65C50.67 11.91 50.64 9.27 50.69 6.62C50.7 5.83 50.46 5.63 49.69 5.63C35.32 5.65 20.95 5.65 6.57 5.65C6.26 5.65 5.95 5.68 5.62 5.7V79.87V79.88Z" fill="white"/>
</g>
<defs>
<clipPath id="clip0_309_798">
<rect width="65.8" height="85.49" fill="white"/>
</clipPath>
</defs>
</svg>
