<svg width="150" height="150" viewBox="0 0 150 150" fill="none" xmlns="http://www.w3.org/2000/svg">
<g clip-path="url(#clip0_226_1421)">
<path d="M134.834 31.5583L136.199 16.0271L117.164 14.3691V0.265381H0V117.088H9.72264L9.27528 122.218L15.3817 122.753L14.2783 128.983L129.653 149.273L150 34.2274L134.834 31.5583ZM5.21921 111.883V5.46971H111.937V111.883H5.21921ZM14.9642 117.088H117.156V19.5883L130.54 20.7556L129.421 33.4764L121.235 126.76L18.6698 117.809L14.9195 117.482L14.9568 117.08L14.9642 117.088ZM125.425 143.236L20.3325 124.76L20.6084 123.207L125.992 132.403L134.387 36.7626L143.968 38.4503L125.44 143.243L125.425 143.236Z" fill="#B4A89C"/>
<path d="M52.0207 64.6949C52.0207 63.4756 52.1848 62.4422 52.5128 61.5872C52.8409 60.7322 53.3852 59.9441 54.1606 59.2081C55.3014 58.1077 56.3527 57.1561 57.307 56.3457C58.2614 55.5353 59.089 54.7695 59.7824 54.0558C60.4758 53.3421 61.0127 52.6729 61.4004 52.041C61.7881 51.409 61.9819 50.7548 61.9819 50.0559C61.9819 48.7176 61.5644 47.6693 60.7293 46.9184C59.8943 46.1675 58.843 45.7884 57.5829 45.7884C55.6667 45.7884 54.2128 46.3162 53.2137 47.372C52.2146 48.4277 51.6554 49.7065 51.5361 51.2157L42.1191 50.6061C42.5665 46.3013 44.1546 43.0152 46.891 40.7625C49.6199 38.5097 53.1242 37.3796 57.404 37.3796C59.2754 37.3796 61.0425 37.6324 62.6903 38.1454C64.3381 38.651 65.7994 39.4168 67.0595 40.4279C68.3196 41.4465 69.3187 42.7029 70.0568 44.2047C70.7875 45.7066 71.1603 47.4389 71.1603 49.3868C71.1603 50.5689 71.041 51.6321 70.795 52.5837C70.5489 53.5428 70.1314 54.487 69.5423 55.4164C68.9533 56.3531 68.1779 57.2974 67.2161 58.249C66.2542 59.2007 65.0464 60.249 63.5775 61.3865C62.6381 62.1151 62.0118 62.8288 61.6837 63.5203C61.3556 64.2117 61.1916 64.9031 61.1916 65.5946V67.364H52.0207V64.6801V64.6949ZM50.9769 76.3973C50.9769 75.624 51.1185 74.8954 51.4019 74.204C51.6852 73.5126 52.0804 72.9178 52.5948 72.4048C53.1018 71.8992 53.7058 71.4977 54.3992 71.2152C55.0926 70.9327 55.8233 70.7914 56.5987 70.7914C57.3741 70.7914 58.1048 70.9327 58.7982 71.2152C59.4916 71.4977 60.0881 71.8992 60.6026 72.4048C61.1096 72.9104 61.5122 73.5126 61.7955 74.204C62.0789 74.8954 62.2205 75.624 62.2205 76.3973C62.2205 77.1705 62.0789 77.8991 61.7955 78.5905C61.5122 79.2819 61.1096 79.8842 60.6026 80.3897C60.0956 80.8953 59.4916 81.2968 58.7982 81.5793C58.1048 81.8618 57.3741 82.0031 56.5987 82.0031C55.8233 82.0031 55.0926 81.8618 54.3992 81.5793C53.7058 81.2968 53.1018 80.9027 52.5948 80.3897C52.0878 79.8842 51.6852 79.2819 51.4019 78.5905C51.1185 77.8991 50.9769 77.1705 50.9769 76.3973Z" fill="#B4A89C"/>
</g>
<defs>
<clipPath id="clip0_226_1421">
<rect width="150" height="149" fill="white" transform="translate(0 0.265381)"/>
</clipPath>
</defs>
</svg>
